<!-- Created with Inkscape (http://www.inkscape.org/) -->
<svg xmlns:rdf="http://www.w3.org/1999/02/22-rdf-syntax-ns#" xmlns="http://www.w3.org/2000/svg" version="1.1" xmlns:cc="http://creativecommons.org/ns#" xmlns:dc="http://purl.org/dc/elements/1.1/" viewBox="0 0 109.593 25.9112">
 <metadata>
  <rdf:RDF>
   <cc:Work rdf:about="">
    <dc:format>image/svg+xml</dc:format>
    <dc:type rdf:resource="http://purl.org/dc/dcmitype/StillImage"/>
    <dc:title/>
   </cc:Work>
  </rdf:RDF>
 </metadata>
 <path d="m23.6588,22.185c0,1.50625-1.22,2.72625-2.72625,2.72625h-17.2062c-1.50515,0-2.7264-1.22-2.7264-2.7262v-18.46c0-1.505,1.22125-2.725,2.72625-2.725h17.2062c1.50625,0,2.72625,1.22,2.72625,2.725v18.46z" fill-rule="nonzero" fill="#5cc9da"/>
 <path fill="#231f20" d="m33.749,1.66483,0,10.5312,2.375,0,0-6.09375,2.71875,6.09375,2.46875,0,2.65625-6.125,0,6.125,2.3125,0,0-10.5312-2.6875,0-3.5,7.875-3.5625-7.875-2.78125,0zm18.2188,0-4.65625,10.5312,2.71875,0,0.90625-2.09375,5.46875,0,0.9375,2.09375,2.6875,0-4.71875-10.5312-3.34375,0zm9.15625,0,0,10.5312,10.0625,0,0-2.09375-7.65625,0,0-2.1875,6.5625,0,0-2.03125-6.5625,0,0-2.09375,7.625,0,0-2.125-10.0312,0zm12.0312,0,0,10.5312,2.46875,0,0-3.59375,2.78125,0,2.3125,3.59375,2.71875,0-2.46875-3.65625c0.0838,0,0.17,0.004,0.25,0,1.3975,0,2.125-0.74875,2.125-1.5625v-3.53125c0-1.11625-0.65625-1.78125-1.78125-1.78125h-8.40625zm13.875,0c-0.90625,0-1.65625,0.68-1.65625,1.625v3.125c0,0.89,0.6725,1.53125,1.625,1.53125h5.96875v2.15625h-5.1875v-0.8125h-2.46875v1.375c0,0.91625,0.53625,1.5625,1.625,1.5625h0.84375,6c1.06375,0,1.625-0.63375,1.625-1.65625v-3c0-1.11875-0.81-1.71875-1.6875-1.71875h-5.9375v-2.0625h5.1875v0.84375h2.4375v-1.28125c0-0.995-0.6425-1.6875-1.5625-1.6875h-6.8125zm10.7188,0,0,10.5625,2.5,0,0-4.8125,4.84375,4.8125,3.5,0-5.875-5.65625,5.65625-4.90625-3.375,0-4.75,4.21875,0-4.21875-2.5,0zm-44.0938,2,1.90625,4.46875-3.8125,0,1.90625-4.46875zm21.9688,0.125,5.28125,0,0,2.71875-5.28125,0,0-2.71875zm-41.4687,11.9688c-0.0475,0-0.0937,0.0451-0.0937,0.0937v8.25c0,0.0488,0.0462,0.0937,0.0937,0.0937h6.3125c0.0475,0,0.0625-0.0451,0.0625-0.0937v-0.90625c0-0.0501-0.015-0.0625-0.0625-0.0625h-5.09375c-0.0475,0-0.0937-0.0462-0.0937-0.0937v-7.1875c0-0.0488-0.045-0.0937-0.0937-0.0937h-1.03125zm8.03125,0c-0.0488,0-0.0625,0.0451-0.0625,0.0937v8.25c0,0.0475,0.0137,0.0937,0.0625,0.0937h1.0625c0.05,0,0.0625-0.0462,0.0625-0.0937v-8.25c0-0.0488-0.0125-0.0937-0.0625-0.0937h-1.0625zm3.625,0c-0.0475,0-0.0937,0.0451-0.0937,0.0937v8.25c0,0.0475,0.0462,0.0937,0.0937,0.0937h1.03125c0.0488,0,0.0625-0.0462,0.0625-0.0937v-6.875l5.4375,6.84375c0.0587,0.0713,0.155,0.125,0.25,0.125h1.15625c0.0488,0,0.0625-0.0462,0.0625-0.0937v-8.25c0-0.0488-0.0138-0.0937-0.0625-0.0937h-1.03125c-0.0488,0-0.0625,0.0451-0.0625,0.0937v6.75l-5.40625-6.78125c-0.0225-0.0349-0.0462-0.0625-0.0937-0.0625h-1.34375zm10.5,0c-0.0488,0-0.0937,0.0451-0.0937,0.0937v8.25c0,0.0476,0.0449,0.0937,0.0937,0.0937h7c0.0488,0,0.0937-0.0462,0.0937-0.0937v-0.90625c0-0.05-0.0449-0.0625-0.0937-0.0625h-5.78125c-0.0463,0-0.0937-0.0462-0.0937-0.0937v-2.4375c0-0.0487,0.0476-0.0625,0.0937-0.0625h4.8125c0.0463,0,0.0625-0.0451,0.0625-0.0937v-0.875c0-0.0475-0.0163-0.0937-0.0625-0.0937h-4.8125c-0.0463,0-0.0937-0.0137-0.0937-0.0625v-2.5c0-0.0501,0.0476-0.0937,0.0937-0.0937h5.71875c0.0475,0,0.0937-0.0138,0.0937-0.0625v-0.90625c0-0.0488-0.0462-0.0937-0.0937-0.0937h-6.9375z" fill-rule="nonzero"/>
 <path d="m15.9415,12.3339,4.47125-5.60625-0.0138-0.0175-6.4625,3.10875-1.595-6.99125-0.0225,0-1.5975,6.99125-6.46125-3.10875-0.0125,0.0175,4.47,5.60625-6.4625,3.1125,0.007,0.0213,7.17125,0-1.59625,6.99375,0.0213,0.007,4.47-5.605,4.47125,5.605,0.0225-0.007-1.59625-6.99375,7.17375,0,0.004-0.0213-6.4625-3.1125z" fill-rule="nonzero" fill="#FFF"/>
</svg>