<!-- Created with Inkscape (http://www.inkscape.org/) -->
<svg xmlns:rdf="http://www.w3.org/1999/02/22-rdf-syntax-ns#" xmlns="http://www.w3.org/2000/svg" version="1.1" xmlns:cc="http://creativecommons.org/ns#" xmlns:dc="http://purl.org/dc/elements/1.1/" viewBox="0 0 188.481 43.4437">
 <metadata>
  <rdf:RDF>
   <cc:Work rdf:about="">
    <dc:format>image/svg+xml</dc:format>
    <dc:type rdf:resource="http://purl.org/dc/dcmitype/StillImage"/>
    <dc:title/>
   </cc:Work>
  </rdf:RDF>
 </metadata>
 <path fill-rule="nonzero" fill="#000" d="m57.7314,12.5918,0,18.25,4.15625,0,0-10.5625,4.6875,10.5625,4.28125,0,4.59375-10.625,0,10.625,4.03125,0,0-18.25-4.65625,0-6.0625,13.6562-6.15625-13.6562-4.875,0zm31.625,0-8.09375,18.25,4.71875,0,1.53125-3.625,9.53125,0,1.625,3.625,4.65625,0-8.15625-18.25-5.8125,0zm15.8438,0,0,18.25,17.4688,0,0-3.65625-13.2812,0,0-3.75,11.3438,0,0-3.5625-11.3438,0,0-3.625,13.25,0,0-3.65625-17.4375,0zm20.8438,0,0,18.25,4.28125,0,0-6.21875,4.8125,0,4.03125,6.21875,4.6875,0-4.25-6.375c0.145,0,0.30125,0.006,0.4375,0,2.4225,0,3.65625-1.27625,3.65625-2.6875v-6.125c0-1.935-1.115-3.0625-3.0625-3.0625h-14.5938zm24.0625,0c-1.57375,0-2.875,1.1725-2.875,2.8125v5.4375c0,1.53875,1.19375,2.625,2.84375,2.625h10.3438v3.75h-9.03125v-1.40625h-4.25v2.375c0,1.5875,0.925,2.6875,2.8125,2.6875h1.4375,10.4062c1.84125,0,2.8125-1.1,2.8125-2.875v-5.1875c0-1.93875-1.385-2.96875-2.90625-2.96875h-10.3125v-3.59375h9.03125v1.4375h4.1875v-2.15625c0-1.7225-1.09125-2.9375-2.6875-2.9375h-11.8125zm18.5625,0,0,18.2812,4.34375,0,0-8.3125,8.40625,8.3125,6.0625,0-10.1875-9.78125,9.8125-8.5-5.84375,0-8.25,7.3125,0-7.3125-4.34375,0zm-76.4375,3.4375,3.375,7.75-6.65625,0,3.28125-7.75zm38.0938,0.21875,9.15625,0,0,4.71875-9.15625,0,0-4.71875z"/>
 <path d="m40.2725,37.7188c0,2.61-2.115,4.725-4.72375,4.725h-29.8238c-2.61,0-4.725-2.115-4.725-4.725v-31.9938c0-2.61,2.115-4.725,4.725-4.725h29.8238c2.60875,0,4.72375,2.115,4.72375,4.725v31.9938z" fill-rule="nonzero" fill="#37bad9"/>
 <path d="m26.8964,20.646,7.75-9.71875-0.0237-0.0312-11.2,5.39375-2.76625-12.1188-0.04,0-2.76625,12.1188-11.2-5.39375-0.025,0.0312,7.75125,9.71875-11.2,5.39375,0.009,0.0388,12.4312,0-2.76625,12.12,0.035,0.0163,7.75125-9.71875,7.75125,9.71875,0.0337-0.0175-2.765-12.1188,12.4312,0,0.009-0.0388-11.2-5.39375z" fill-rule="nonzero" fill="#FFF"/>
</svg>